<svg width="113" height="152" xmlns="http://www.w3.org/2000/svg" xmlns:undefined="http://sodipodi.sourceforge.net/DTD/sodipodi-0.dtd" version="1.1">

 <g>
  <title>Layer 1</title>
  <g id="svg_1">
   <path fill-rule="evenodd" fill="#dfe3c9" id="path2" d="m56.11868,0.5048c-0.565,0.4705 -2.2647,1.8227 -3.9363,3.1306c-0.7775,0.6084 -0.9129,0.7144 -1.4335,1.106c-0.1915,0.1453 -0.8008,0.6084 -1.3542,1.0271c-0.551,0.4187 -1.0926,0.8251 -1.2023,0.904c-0.2148,0.1551 -0.3573,0.2586 -1.3308,0.968c-0.7658,0.5591 -1.0857,0.7882 -1.9495,1.4015c-0.3596,0.2537 -0.8102,0.5763 -1.0039,0.7143c-0.1915,0.1379 -0.5907,0.4089 -0.8872,0.6034c-0.2942,0.1922 -0.7004,0.4606 -0.8989,0.5912c-0.6864,0.4581 -2.3114,1.4779 -3.0468,1.9138c-2.4631,1.4631 -3.6538,2.1208 -6.0002,3.308c-0.6257,0.3177 -1.5526,0.7414 -2.3347,1.069c-0.8545,0.3596 -1.0179,0.4236 -1.4475,0.5763c-0.2312,0.0813 -0.7775,0.2784 -1.2141,0.436c-1.109,0.399 -1.228,0.4409 -1.5059,0.5296c-0.1354,0.0419 -0.3035,0.0985 -0.3735,0.1231c-0.1541,0.0567 -0.8639,0.2759 -1.4242,0.4434c-0.084,0.0246 -0.2615,0.0788 -0.3969,0.1207c-0.1354,0.0394 -0.3385,0.101 -0.4553,0.1355c-0.3268,0.096 -1.6973,0.4704 -1.9961,0.5443c-0.425,0.1035 -0.983,0.2463 -1.7394,0.4434c-0.6514,0.1699 -0.9082,0.234 -1.5993,0.3965c-0.1471,0.0345 -0.3572,0.0862 -0.4669,0.1109c-0.1098,0.0271 -0.2989,0.0714 -0.4203,0.096c-0.1214,0.0247 -0.3945,0.0862 -0.607,0.1355c-0.8498,0.1946 -1.5876,0.3448 -2.6149,0.532c-0.2778,0.0493 -0.7541,0.1454 -1.0389,0.2069c-0.0887,0.0197 -0.3152,0.0641 -0.502,0.0986c-0.1868,0.0344 -0.4809,0.0886 -0.6537,0.1231c-1.2701,0.2439 -1.5923,0.303 -2.253,0.4064c-0.6,0.0936 -0.7121,0.1133 -0.7214,0.1256c-0.0094,0.0099 -0.0561,0.6503 -0.0747,0.9951c-0.0351,0.6872 -0.1892,2.0789 -0.2872,2.5986c-0.0234,0.1281 -0.0607,0.3178 -0.0794,0.4187c-0.056,0.2907 -0.3362,1.3843 -0.4413,1.7242c-0.0957,0.3104 -0.3665,1.1158 -0.4132,1.2316c-0.0117,0.0345 -0.0864,0.234 -0.1634,0.4433c-0.1681,0.4631 -0.2545,0.6601 -0.6024,1.3917c-0.3992,0.835 -0.5253,1.0616 -1.1417,2.0444c-0.3455,0.5566 -1.0156,1.4852 -1.3214,1.8374c-0.042,0.0493 -0.2195,0.2587 -0.3969,0.468c-0.4786,0.5715 -1.144,1.2316 -2.0966,2.0888c-0.5673,0.5098 -1.2701,1.0049 -2.0125,1.4162c-0.2521,0.1404 -0.2942,0.1725 -0.2755,0.2069c0.0117,0.0222 0.0654,0.2193 0.1191,0.436c0.0514,0.2168 0.2241,0.803 0.3829,1.3055c0.516,1.6256 1.0646,3.4434 1.4592,4.8153c0.3479,1.2168 0.3572,1.2464 0.572,2.1306c0.1261,0.5222 0.3175,1.2932 0.5953,2.4262c0.0817,0.3251 0.1424,0.5961 0.2919,1.2931c0.028,0.1355 0.084,0.3966 0.1237,0.5789c0.0654,0.298 0.2148,1.0221 0.2452,1.1822c0.007,0.0345 0.0653,0.3276 0.1307,0.6528c0.0654,0.3251 0.1448,0.7463 0.1774,0.936c0.0351,0.1896 0.0818,0.4556 0.1051,0.5911c0.0911,0.5148 0.1868,1.0739 0.2545,1.4902c0.0397,0.2364 0.0817,0.4852 0.0957,0.5542c0.0117,0.0665 0.049,0.3005 0.0817,0.5172c0.2639,1.7267 0.2498,1.6454 0.3712,2.5494c0.1168,0.8522 0.2078,1.7685 0.3619,3.5345c0.0607,0.7192 0.0888,1.1429 0.1308,1.9705c0.0187,0.3793 0.0443,0.8843 0.0583,1.1207c0.0141,0.2365 0.0397,0.8621 0.0584,1.3917c0.035,0.9409 0.0467,1.2512 0.07,1.7488c0.007,0.1354 0.0281,0.8547 0.0467,1.601c0.0187,0.7439 0.0397,1.5271 0.0467,1.7365c0.0421,1.335 0.0841,2.5271 0.1051,3.005c0.014,0.3054 0.0397,0.9754 0.0584,1.4902c0.021,0.5148 0.0397,1.0025 0.0467,1.0837c0.007,0.0813 0.021,0.4237 0.035,0.7636c0.014,0.3374 0.035,0.7882 0.0467,0.9976c0.014,0.2093 0.0443,0.7635 0.07,1.2315c0.0257,0.468 0.0537,0.9335 0.0607,1.0345c0.0257,0.3818 0.1261,1.6774 0.1611,2.069c0.0187,0.2242 0.0491,0.5936 0.0701,0.8252c0.0186,0.229 0.0467,0.5246 0.0607,0.6527c0.0116,0.1281 0.049,0.4828 0.0793,0.7882c0.1238,1.2143 0.1518,1.4852 0.2102,1.9582c0.0327,0.2709 0.1074,0.8867 0.1634,1.3694c0.1097,0.9188 0.1191,0.9828 0.3829,2.5715c0.1821,1.106 0.2335,1.3917 0.3875,2.1676c0.1705,0.8571 0.2195,1.1157 0.2685,1.367c0.0654,0.3374 0.1261,0.6059 0.432,1.9582c0.2381,1.0616 0.3782,1.6231 0.5836,2.3399c0.0304,0.1084 0.1191,0.4286 0.1962,0.7143c0.077,0.2833 0.1984,0.6995 0.2684,0.9237c0.0677,0.2241 0.2218,0.7217 0.3409,1.1084c0.1961,0.633 0.2989,0.9335 0.6187,1.8104c0.056,0.1478 0.1961,0.5369 0.3152,0.8621c0.1914,0.532 0.3572,0.9335 1.172,2.8695c0.1284,0.3054 0.3035,0.697 0.3923,0.8744c0.0863,0.1749 0.3758,0.7635 0.642,1.3054c0.3665,0.7463 0.649,1.2735 1.1604,2.1676c0.3712,0.6502 0.7704,1.3251 0.8871,1.5025c0.1168,0.1748 0.4903,0.7463 0.8312,1.2685c0.3385,0.5221 0.6724,1.0197 0.7378,1.1084c0.2054,0.2684 0.8054,1.0739 1.123,1.5024c0.1657,0.2242 0.3899,0.5173 0.4996,0.6503c0.1097,0.1355 0.4716,0.5764 0.8008,0.9803c0.5767,0.7069 0.7378,0.8991 1.4078,1.6577c0.1681,0.1897 0.4179,0.4778 0.5604,0.6404c0.4412,0.5099 2.1222,2.2833 2.7409,2.8917c0.9316,0.9113 1.4732,1.4335 1.9402,1.8744c0.2381,0.2242 0.4739,0.4458 0.5253,0.4951c0.0513,0.0493 0.2568,0.2438 0.4552,0.431c0.1985,0.1897 0.8405,0.7488 1.4242,1.2439c0.5837,0.4951 1.4312,1.2143 1.8795,1.601c0.9875,0.8474 2.6125,2.1676 4.1884,3.3991c0.1985,0.1552 0.5744,0.4459 0.8335,0.6503c0.2592,0.202 0.6071,0.4729 0.7728,0.601c0.1634,0.1281 0.4926,0.3842 0.7308,0.569c0.2381,0.1872 0.558,0.431 0.7121,0.5468c0.1541,0.1133 0.586,0.436 0.9572,0.7118c0.3735,0.2784 0.8218,0.6084 0.9993,0.7365c0.1751,0.1281 0.4155,0.303 0.5323,0.3892c0.8591,0.6281 1.5642,1.1355 2.4491,1.766c0.2241,0.1601 0.5346,0.3818 0.6887,0.4926c0.1541,0.1109 0.502,0.3597 0.7705,0.5542c0.8591,0.6183 0.9759,0.702 1.2257,0.8794c0.3245,0.229 1.3238,0.9236 1.7627,1.2266c1.0319,0.7094 1.4382,0.9926 2.6569,1.8498c0.7354,0.5148 1.6553,1.1675 2.0475,1.4508c0.8802,0.633 1.0133,0.729 1.8561,1.3177c0.3736,0.2611 0.8032,0.5665 0.9573,0.6823c0.1541,0.1133 0.4599,0.3399 0.677,0.5025c0.2195,0.1625 0.6888,0.5098 1.046,0.7685c0.3572,0.2611 0.7167,0.5246 0.7985,0.5887l0.1494,0.1182l0.4156,-0.303c1.4638,-1.0665 1.9635,-1.4261 3.0001,-2.1552c0.6397,-0.4483 1.5642,-1.1084 2.0545,-1.4656c0.4926,-0.3546 2.4491,-1.7414 4.3496,-3.0788c1.9004,-1.3375 3.5978,-2.5346 3.7705,-2.6602c0.1728,-0.1232 0.5464,-0.3941 0.8289,-0.5985c0.7307,-0.5296 1.7183,-1.2414 2.1012,-1.5173c1.3004,-0.9335 3.2359,-2.3523 3.5394,-2.5937c0.0724,-0.0591 0.446,-0.3473 0.8288,-0.6428c0.3853,-0.2956 1.0343,-0.7981 1.4452,-1.1183c0.4109,-0.3202 0.8545,-0.6626 0.9853,-0.7635c0.2054,-0.1626 0.6584,-0.5321 2.1222,-1.7415c1.3215,-1.0887 2.4281,-2.0173 2.72,-2.2759c0.1867,-0.1675 0.7331,-0.6552 1.214,-1.0837c0.481,-0.4286 1.0903,-0.9828 1.3541,-1.2316c0.2639,-0.2488 0.7051,-0.6626 0.9806,-0.9212c0.5417,-0.5074 0.5837,-0.5493 1.6086,-1.5887c0.8592,-0.8744 2.3231,-2.436 2.9091,-3.1035c0.2428,-0.2759 0.6,-0.6823 0.7915,-0.8991c0.1938,-0.2167 0.5183,-0.6034 0.7237,-0.8596c0.3316,-0.4163 0.6771,-0.8424 1.3145,-1.6256c0.3432,-0.4237 1.5409,-2.1405 2.0709,-2.9705c0.2801,-0.4409 0.586,-0.9163 0.677,-1.0592c0.0934,-0.1428 0.3059,-0.5074 0.474,-0.8128c0.1657,-0.3054 0.3992,-0.7316 0.5183,-0.9483c0.2405,-0.4335 0.4623,-0.8375 0.6584,-1.1946c0.07,-0.1281 0.1587,-0.3005 0.1961,-0.3818c0.0373,-0.0813 0.3175,-0.67 0.621,-1.3054c0.3012,-0.638 0.6141,-1.3129 0.6911,-1.5025c0.077,-0.1897 0.1984,-0.4828 0.2685,-0.6528c0.5837,-1.4113 0.6163,-1.4926 0.8988,-2.266c0.0537,-0.1429 0.1658,-0.4458 0.2499,-0.6724c0.2031,-0.5395 0.8848,-2.6873 1.0973,-3.4533c0.035,-0.1232 0.0817,-0.2882 0.105,-0.3695c0.1074,-0.3621 0.3082,-1.0788 0.3619,-1.2931c0.0887,-0.3424 0.0981,-0.3818 0.1611,-0.6651c0.0327,-0.1428 0.1308,-0.5739 0.2218,-0.9606c0.0887,-0.3867 0.2008,-0.8744 0.2452,-1.0837c0.0467,-0.2094 0.0957,-0.4212 0.1074,-0.468c0.014,-0.0468 0.0397,-0.1577 0.056,-0.2463c0.0187,-0.0887 0.0607,-0.2833 0.0957,-0.4311c0.0327,-0.1502 0.0817,-0.3941 0.1074,-0.5419c0.0794,-0.468 0.1634,-0.9729 0.2195,-1.3177c0.0303,-0.1823 0.0817,-0.5 0.1167,-0.702c0.0887,-0.532 0.1448,-0.8818 0.2101,-1.3301c0.0304,-0.2167 0.0841,-0.5714 0.1168,-0.7882c0.0934,-0.5985 0.1471,-1.0099 0.2124,-1.5641c0.0304,-0.2783 0.0841,-0.7315 0.1144,-1.0098c0.0654,-0.5666 0.1238,-1.1035 0.2102,-1.9213c0.0327,-0.3054 0.0677,-0.6428 0.0817,-0.7512c0.0117,-0.1084 0.0327,-0.3744 0.0467,-0.5912c0.014,-0.2167 0.0303,-0.4556 0.035,-0.5295c0.007,-0.0739 0.0327,-0.4631 0.0584,-0.8621c0.0793,-1.2045 0.1611,-2.436 0.2101,-3.1528c0.0257,-0.3719 0.0677,-1.1158 0.0934,-1.6503c0.0257,-0.5345 0.0513,-1.0616 0.0583,-1.17c0.007,-0.1083 0.0327,-0.6527 0.0584,-1.2069c0.0257,-0.5566 0.056,-1.2217 0.0677,-1.4778c0.014,-0.2587 0.035,-0.8892 0.049,-1.404c0.0141,-0.5148 0.0304,-1.0468 0.0351,-1.1823c0.007,-0.1355 0.0303,-0.8178 0.056,-1.5148c0.0467,-1.2858 0.056,-1.5222 0.0957,-3.1282c0.014,-0.495 0.035,-1.0813 0.0467,-1.3054c0.0117,-0.2242 0.028,-0.5 0.035,-0.6158c0.007,-0.1158 0.0281,-0.4975 0.0467,-0.8498c0.0187,-0.3522 0.0467,-0.7635 0.0584,-0.9113c0.0117,-0.1503 0.0397,-0.537 0.0584,-0.8621c0.021,-0.3251 0.042,-0.6084 0.0467,-0.6281c0.005,-0.0197 0.0303,-0.2635 0.0583,-0.5419c0.0257,-0.2783 0.0514,-0.5443 0.0584,-0.5911c0.005,-0.0468 0.0303,-0.3251 0.0584,-0.6158c0.0256,-0.2906 0.0537,-0.5567 0.0583,-0.5911c0.0117,-0.0592 0.0397,-0.2759 0.1635,-1.3055c0.0677,-0.5714 0.1284,-1.0049 0.2101,-1.5394c0.0327,-0.2168 0.0817,-0.5321 0.105,-0.702c0.0748,-0.5173 0.2242,-1.4163 0.3269,-1.9828c0.0467,-0.2611 0.1074,-0.5986 0.2218,-1.2439c0.063,-0.3571 0.084,-0.4631 0.3222,-1.5887c0.0327,-0.1502 0.1051,-0.5049 0.1634,-0.7882c0.1168,-0.5665 0.3782,-1.6675 0.8032,-3.3868c0.0443,-0.1822 0.112,-0.4606 0.1494,-0.6157c0.1751,-0.7143 0.2451,-0.9853 0.3992,-1.5148c0.1424,-0.4951 0.3012,-1.0419 0.4973,-1.7242c0.0304,-0.1084 0.1051,-0.3695 0.1634,-0.5789c0.0607,-0.2093 0.1331,-0.4655 0.1635,-0.5665c0.0303,-0.101 0.084,-0.2857 0.1167,-0.4064c0.0771,-0.2832 0.2008,-0.6847 0.5603,-1.835c0.2615,-0.835 0.3853,-1.2562 0.4857,-1.6503c0.021,-0.0739 0.084,-0.3079 0.1424,-0.5172c0.0583,-0.2094 0.098,-0.3892 0.0887,-0.3966c-0.009,-0.0098 -0.1518,-0.0911 -0.3199,-0.1823c-0.9689,-0.532 -2.2693,-1.5665 -3.397,-2.702c-1.1813,-1.1847 -1.9775,-2.2488 -2.6826,-3.5789c-0.1097,-0.2044 -0.3665,-0.6798 -0.572,-1.0591c-0.4576,-0.8424 -0.4436,-0.8128 -0.8731,-1.7858c-0.0631,-0.1428 -0.1635,-0.4088 -0.2242,-0.5911c-0.0607,-0.1823 -0.1564,-0.4705 -0.2124,-0.6404c-0.0934,-0.2784 -0.2499,-0.8079 -0.3829,-1.3055c-0.0888,-0.33 -0.2802,-1.2611 -0.3152,-1.5394c-0.1168,-0.8867 -0.1588,-1.3399 -0.2802,-2.9853c-0.014,-0.1921 -0.035,-0.3596 -0.049,-0.3719c-0.0234,-0.0247 -0.0631,-0.032 -0.8522,-0.1527c-0.7611,-0.1158 -1.1066,-0.1725 -1.1463,-0.1848c-0.021,-0.0074 -0.2102,-0.0468 -0.4203,-0.0862c-0.2101,-0.0394 -0.53,-0.0985 -0.7097,-0.1355c-0.1798,-0.0344 -0.495,-0.096 -0.7004,-0.1354c-0.2055,-0.0394 -0.509,-0.0985 -0.6771,-0.133c-0.1658,-0.037 -0.4389,-0.0912 -0.607,-0.1232c-0.4973,-0.0985 -1.6297,-0.335 -2.0663,-0.4335c-0.1097,-0.0246 -0.3548,-0.0788 -0.5486,-0.1182c-0.9432,-0.202 -1.5363,-0.3325 -1.716,-0.3769c-0.1098,-0.0271 -0.3035,-0.0763 -0.4319,-0.1084c-0.2265,-0.0566 -0.3969,-0.1009 -1.1908,-0.2955c-0.698,-0.1724 -2.5892,-0.6848 -3.1401,-0.8498c-0.0958,-0.0295 -0.2802,-0.0837 -0.4086,-0.1232c-0.9409,-0.2807 -1.9075,-0.5788 -2.2063,-0.6773c-0.0957,-0.032 -0.2638,-0.0862 -0.3736,-0.1207c-0.9432,-0.2931 -1.0763,-0.3399 -2.1829,-0.7512c-0.3199,-0.1207 -0.6421,-0.239 -0.7121,-0.2611c-0.0701,-0.0247 -0.2545,-0.0986 -0.4086,-0.1651c-0.1541,-0.0689 -0.4693,-0.2044 -0.7004,-0.3029c-0.8568,-0.367 -1.1744,-0.505 -1.3074,-0.5665c-0.0374,-0.0197 -0.2382,-0.1133 -0.4436,-0.2094c-0.2055,-0.0985 -0.4156,-0.197 -0.467,-0.2217c-0.7588,-0.3571 -1.144,-0.5542 -1.9028,-0.9729c-0.4949,-0.2734 -1.0879,-0.601 -1.3191,-0.7266c-0.2311,-0.1256 -0.5346,-0.2907 -0.6771,-0.3695c-0.14,-0.0763 -0.4132,-0.2266 -0.607,-0.3325c-0.4459,-0.2439 -1.3074,-0.7611 -3.2289,-1.9385c-0.4623,-0.2832 -0.9806,-0.6158 -1.4639,-0.9384c-0.0887,-0.0591 -0.3478,-0.2291 -0.572,-0.3744c-1.0459,-0.6798 -3.2242,-2.1922 -4.2141,-2.9262c-0.1284,-0.096 -0.4226,-0.3128 -0.6537,-0.4852c-0.8639,-0.638 -1.6904,-1.2562 -1.9729,-1.4705c-0.1611,-0.1207 -0.4552,-0.3424 -0.6537,-0.4926c-0.7961,-0.5961 -1.1347,-0.8572 -1.6366,-1.2562c-0.2872,-0.2291 -0.8592,-0.6847 -1.2701,-1.0099c-0.4109,-0.3276 -1.0086,-0.803 -1.3308,-1.0591c-0.3198,-0.2562 -1.0086,-0.803 -1.5292,-1.2168l-0.9456,-0.7512l-0.607,0.5049l0,-0.0001zm1.7394,5.2637c0.558,0.4384 1.3634,1.0813 1.786,1.4286c1.604,1.3153 4.2259,3.3498 6.2337,4.8351c1.0226,0.7562 3.0725,2.2094 3.8873,2.7537c0.1214,0.0813 0.593,0.3966 1.0436,0.6996c0.453,0.3029 0.9736,0.6453 1.1557,0.7586c0.1844,0.1133 0.6491,0.4015 1.0343,0.6429c0.3852,0.2389 0.9992,0.6108 1.3658,0.8251c0.3665,0.2143 0.7821,0.4582 0.9222,0.5419c0.4763,0.2833 2.5145,1.3596 3.2919,1.7365c0.425,0.2044 0.8382,0.4064 0.9199,0.4458c0.0817,0.0419 0.3409,0.1577 0.572,0.2562c0.2335,0.0985 0.6164,0.266 0.8545,0.3695c1.2608,0.5492 2.7083,1.0862 4.5761,1.6995c0.4809,0.1576 0.9175,0.303 0.9689,0.3227c0.0957,0.0345 0.6794,0.2044 1.5642,0.4532c0.1028,0.0295 0.3246,0.0911 0.4903,0.1379c0.7681,0.2192 2.7643,0.734 3.2686,0.8473c0.3082,0.0665 0.6281,0.1404 0.7121,0.1601c0.4576,0.1109 2.7783,0.606 3.2803,0.6996c0.1424,0.0271 0.5089,0.0985 0.8171,0.1601c0.5323,0.1059 0.7168,0.1404 1.6227,0.3103c0.8054,0.1503 2.0872,0.399 2.2786,0.4434l0.1191,0.0271l0.0163,0.2143c0.009,0.1182 0.0304,0.4409 0.0491,0.7192c0.0677,1.0074 0.2194,2.2217 0.3478,2.7956c0.0351,0.1478 0.0888,0.3917 0.1214,0.5419c0.0327,0.1478 0.1261,0.4976 0.2078,0.7759c0.0817,0.2783 0.1705,0.5887 0.1985,0.6897c0.0467,0.1699 0.1144,0.3522 0.509,1.4162c0.0747,0.202 0.2054,0.5025 0.2895,0.6651c0.084,0.1625 0.2077,0.4064 0.2755,0.5419c0.0677,0.1354 0.1657,0.33 0.2171,0.431c0.1774,0.3547 0.7541,1.2858 1.144,1.8523c0.7027,1.0246 1.4498,1.9039 2.4701,2.9015c0.3152,0.3104 0.7518,0.7094 0.9689,0.8892c0.2171,0.1798 0.4413,0.3645 0.4996,0.4163c0.0584,0.0492 0.3806,0.2709 0.7168,0.4926c0.3385,0.2241 0.614,0.4187 0.614,0.4335c0,0.0148 -0.147,0.4901 -0.3245,1.0591c-0.3502,1.1109 -0.4272,1.3695 -0.8195,2.7193c-0.0934,0.3177 -0.2404,0.8227 -0.3268,1.1207c-0.0888,0.298 -0.2242,0.7685 -0.3035,1.0468c-0.0794,0.2784 -0.1751,0.6109 -0.2148,0.739c-0.0607,0.2093 -0.1798,0.6552 -0.2639,0.9975c-0.0163,0.0665 -0.1891,0.7611 -0.3829,1.5395c-0.1961,0.7758 -0.4109,1.6921 -0.4809,2.032c-0.07,0.3375 -0.1494,0.7094 -0.1751,0.8252c-0.042,0.1896 -0.1097,0.5172 -0.3596,1.7365c-0.1751,0.8571 -0.4832,2.5025 -0.551,2.9557c-0.0256,0.1773 -0.0793,0.5246 -0.1167,0.7759c-0.098,0.6355 -0.3175,2.2685 -0.3735,2.771c-0.0771,0.6773 -0.1845,1.7118 -0.2335,2.2414c-0.0257,0.2709 -0.0514,0.5197 -0.0584,0.5542c-0.021,0.1158 -0.1517,2.4286 -0.1868,3.3252c-0.0186,0.4951 -0.0466,1.138 -0.0583,1.4286c-0.014,0.2906 -0.0397,1.0493 -0.0584,1.6872c-0.0187,0.6355 -0.0607,2.0395 -0.0934,3.1159c-0.0303,1.0763 -0.0677,2.1182 -0.0817,2.3153c-0.0117,0.197 -0.0327,0.5788 -0.0467,0.8498c-0.014,0.2709 -0.0397,0.7906 -0.0583,1.1576c-0.0187,0.3646 -0.0561,1.2513 -0.0818,1.9705c-0.0256,0.7168 -0.0537,1.3498 -0.0607,1.404c-0.005,0.0542 -0.0373,0.4926 -0.0677,0.9729c-0.133,2.0444 -0.133,2.0641 -0.2334,3.0543c-0.0304,0.3177 -0.0794,0.8054 -0.1051,1.0837c-0.063,0.6626 -0.1541,1.5222 -0.2101,1.9828c-0.0257,0.202 -0.1004,0.8227 -0.1658,1.3794c-0.1051,0.899 -0.1704,1.3892 -0.3245,2.3522c-0.0234,0.1552 -0.0771,0.505 -0.1168,0.7759c-0.077,0.5296 -0.1634,1.0321 -0.2334,1.367c-0.0257,0.1158 -0.1284,0.6478 -0.2335,1.1823c-0.1051,0.5345 -0.2521,1.2439 -0.3292,1.5764c-0.077,0.3325 -0.2241,0.9631 -0.3269,1.404c-0.1027,0.4409 -0.2288,0.9434 -0.2801,1.1207c-0.0514,0.1749 -0.1284,0.4409 -0.1728,0.5912c-0.0443,0.1477 -0.1471,0.5024 -0.2311,0.7882c-0.2615,0.8941 -0.3175,1.0788 -0.3666,1.2315c-0.1424,0.4237 -0.9292,2.6478 -1.0202,2.8818c-0.0374,0.0936 -0.1658,0.4212 -0.2849,0.7267c-0.1191,0.3054 -0.2755,0.7093 -0.3502,0.899c-0.1517,0.3842 -1.1814,2.6109 -1.3681,2.9557c-0.495,0.9114 -0.9759,1.7981 -1.123,2.0641c-0.2732,0.4951 -1.4709,2.3868 -1.8981,2.9976c-0.9596,1.3695 -1.2421,1.7611 -1.541,2.1306c-0.1751,0.2168 -0.4902,0.6109 -0.7004,0.8744c-0.5813,0.7291 -0.6047,0.7562 -1.5292,1.8375c-1.3074,1.5271 -3.4834,3.7956 -4.9613,5.1725c-0.1471,0.138 -0.5206,0.4877 -0.8288,0.7759c-0.3082,0.2882 -0.7448,0.6847 -0.9689,0.8818c-0.2241,0.1946 -0.6561,0.5739 -0.9572,0.8399c-0.3012,0.2636 -0.8475,0.7365 -1.2141,1.0468c-0.3665,0.3104 -0.7331,0.6232 -0.8171,0.6971c-0.0841,0.0714 -0.53,0.4384 -0.9899,0.8128c-0.4623,0.3744 -0.9409,0.7636 -1.0623,0.8646c-0.4506,0.3645 -2.7153,2.1453 -3.3433,2.6281c-1.4873,1.138 -3.0679,2.3129 -5.0524,3.7489c-0.4622,0.3349 -1.165,0.8473 -1.5642,1.1379c-1.3635,0.9926 -1.6834,1.2242 -3.7122,2.6799c-0.3339,0.2414 -0.7425,0.5345 -0.9106,0.6552c-0.3315,0.2413 -0.5906,0.4261 -1.9144,1.3768c-0.488,0.3498 -1.1767,0.8498 -1.5293,1.1109c-0.3525,0.2586 -1.0996,0.8104 -1.6576,1.2217c-1.3915,1.0271 -2.0569,1.5074 -2.0756,1.4976c-0.0256,-0.0123 -0.656,-0.4729 -1.6413,-1.1971c-0.5089,-0.3744 -1.0973,-0.8054 -1.3074,-0.9557c-2.2133,-1.5936 -4.0624,-2.9311 -4.6671,-3.3769c-0.7634,-0.5616 -1.4008,-1.0222 -2.0989,-1.5222c-1.3401,-0.9557 -2.2203,-1.5912 -2.8974,-2.0863c-0.6373,-0.468 -1.8327,-1.33 -3.8733,-2.8005c-0.3128,-0.2242 -0.6887,-0.5123 -1.9494,-1.4902c-0.8919,-0.6897 -3.271,-2.5912 -4.5084,-3.6011c-0.9525,-0.7758 -2.2133,-1.8473 -3.1495,-2.6798c-0.9386,-0.835 -1.3588,-1.2168 -2.4304,-2.207c-0.7215,-0.6675 -3.4858,-3.4902 -4.1512,-4.2365c-0.8615,-0.968 -1.3051,-1.4803 -1.6039,-1.8473c-0.1611,-0.1971 -0.4553,-0.5567 -0.6537,-0.8006c-0.1985,-0.2438 -0.6281,-0.7931 -0.9549,-1.2192c-0.3245,-0.4261 -0.6351,-0.8325 -0.6888,-0.899c-0.3035,-0.3818 -1.5525,-2.2809 -2.0802,-3.1651c-0.5043,-0.8375 -0.7237,-1.2291 -1.3051,-2.3153c-0.0537,-0.101 -0.1611,-0.3005 -0.2381,-0.4434c-0.2288,-0.4237 -1.067,-2.1774 -1.2164,-2.5493c-0.0771,-0.1897 -0.2732,-0.6675 -0.4366,-1.0592c-0.1634,-0.3941 -0.3455,-0.8522 -0.4062,-1.0221c-0.0607,-0.17 -0.1915,-0.5296 -0.2895,-0.8006c-0.0958,-0.2709 -0.2428,-0.6822 -0.3269,-0.9113c-0.0817,-0.2315 -0.2428,-0.7192 -0.3549,-1.0838c-0.112,-0.367 -0.2708,-0.8818 -0.3502,-1.1453c-0.0817,-0.2636 -0.1868,-0.6183 -0.2311,-0.7882c-0.0444,-0.17 -0.1308,-0.4902 -0.1891,-0.7143c-0.1004,-0.3744 -0.2242,-0.8449 -0.3035,-1.1454c-0.1331,-0.5074 -0.6794,-2.872 -0.7472,-3.239c-0.0466,-0.2512 -0.105,-0.5616 -0.1284,-0.6896c-0.1494,-0.7882 -0.2941,-1.6158 -0.4085,-2.3154c-0.0701,-0.4409 -0.1541,-0.9507 -0.1845,-1.133c-0.1214,-0.6995 -0.3548,-2.6528 -0.551,-4.5567c-0.0373,-0.372 -0.0864,-0.8276 -0.105,-1.0099c-0.0327,-0.303 -0.1518,-1.7513 -0.2335,-2.8449c-0.0187,-0.2439 -0.049,-0.7365 -0.07,-1.0961c-0.0187,-0.3596 -0.0514,-0.9089 -0.0701,-1.2192c-0.1144,-1.9483 -0.2638,-5.9435 -0.3619,-9.6677c-0.0513,-1.9336 -0.1004,-3.2415 -0.1517,-4.0518c-0.0654,-1.0444 -0.1284,-1.973 -0.1518,-2.2661c-0.014,-0.1626 -0.0397,-0.5074 -0.0583,-0.7636c-0.0187,-0.2586 -0.0444,-0.5616 -0.0584,-0.6773c-0.0117,-0.1158 -0.049,-0.4705 -0.0817,-0.7882c-0.0724,-0.7414 -0.1424,-1.372 -0.1868,-1.6996c-0.0187,-0.1428 -0.056,-0.4359 -0.0817,-0.6527c-0.0257,-0.2167 -0.1191,-0.8547 -0.2078,-1.4163c-0.2662,-1.6675 -0.3455,-2.1404 -0.4903,-2.8572c-0.1331,-0.6601 -0.2008,-1.0025 -0.3058,-1.5641c-0.0631,-0.3399 -0.1401,-0.7438 -0.1728,-0.899c-0.1774,-0.8374 -0.8312,-3.5641 -1.046,-4.3474c-0.1681,-0.6207 -0.2848,-1.0616 -0.4762,-1.8104c-0.0327,-0.128 -0.0841,-0.335 -0.1168,-0.4556c-0.0327,-0.1232 -0.1728,-0.5887 -0.3128,-1.0346c-0.1401,-0.4482 -0.3642,-1.1896 -0.502,-1.6502c-0.4016,-1.3572 -0.8708,-2.872 -0.9035,-2.9114c-0.0234,-0.032 -0.007,-0.0813 0.0303,-0.0813c0.0397,0 0.6141,-0.4064 1.06,-0.7537c1.5339,-1.1897 2.7549,-2.4114 3.6912,-3.6922c1.0039,-1.3744 1.9378,-3.0764 2.5495,-4.6454c0.2895,-0.7439 0.628,-1.8646 0.8218,-2.7267c0.0514,-0.2266 0.1027,-0.4508 0.1167,-0.4976c0.0234,-0.096 0.1144,-0.6379 0.1868,-1.133c0.0584,-0.4113 0.1331,-1.3153 0.1494,-1.8449c0.0094,-0.2364 0.0164,-0.4335 0.021,-0.4359c0.0024,-0.0025 0.2195,-0.0444 0.4833,-0.0936c0.2638,-0.0493 0.6257,-0.1158 0.8055,-0.1503c0.1798,-0.032 0.4319,-0.0763 0.5603,-0.0985c0.2242,-0.037 0.432,-0.0764 1.2258,-0.234c0.1984,-0.0394 0.6257,-0.1232 0.9455,-0.1847c0.3222,-0.0641 0.9246,-0.1872 1.3425,-0.2759c0.4179,-0.0862 0.9105,-0.1921 1.0973,-0.2291c0.1868,-0.0394 0.565,-0.1207 0.8405,-0.1847c0.2755,-0.0616 0.6023,-0.133 0.7237,-0.1601c0.4086,-0.0887 0.8966,-0.1995 1.1441,-0.2611c0.1354,-0.0345 0.4039,-0.101 0.5953,-0.1502c0.6537,-0.1626 1.751,-0.4508 1.9612,-0.5148c0.1167,-0.0345 0.4879,-0.138 0.8288,-0.234c1.2164,-0.3375 2.6779,-0.8079 4.3892,-1.4138c1.6507,-0.5838 1.8281,-0.6528 3.2336,-1.2685c0.0911,-0.0395 0.2592,-0.1109 0.3736,-0.1626c0.2031,-0.0887 0.9012,-0.4187 1.6459,-0.7808c0.4203,-0.2045 2.3931,-1.2488 3.0585,-1.6183c0.2498,-0.1379 0.7751,-0.4483 1.1674,-0.6897c0.3922,-0.2389 1.0599,-0.6453 1.4825,-0.899c1.758,-1.0542 4.8095,-3.1478 7.2843,-4.9976c1.3518,-1.0099 1.8421,-1.3843 3.0421,-2.3375c1.8234,-1.4459 2.5075,-1.9853 2.9535,-2.3326c0.2171,-0.1699 0.9035,-0.7217 1.5269,-1.2242c0.6327,-0.5148 1.144,-0.9113 1.1603,-0.9015c0.014,0.0074 0.4833,0.3744 1.0413,0.8104z"/>
   <path fill-rule="evenodd" fill="#dfe3c9" id="path4" d="m56.43388,7.3572c-0.0584,0.0123 -0.2055,0.0714 -0.3269,0.1355c-0.1914,0.096 -0.2498,0.1428 -0.4319,0.3399c-0.2381,0.2561 -0.4039,0.5517 -0.4669,0.8301c-0.0467,0.2093 -0.0467,0.697 0.002,0.9088c0.1284,0.5863 0.6397,1.1429 1.1837,1.2956c0.1985,0.0542 0.7004,0.0468 0.8942,-0.0172c0.3899,-0.1256 0.6561,-0.3448 0.9059,-0.7488c0.2148,-0.3473 0.2708,-0.5493 0.2708,-0.9852c0,-0.4532 -0.0957,-0.7537 -0.3525,-1.1109c-0.2312,-0.3202 -0.5043,-0.5222 -0.8616,-0.6281c-0.1657,-0.0517 -0.6163,-0.0616 -0.8171,-0.0197l0.0003,0z"/>
   <path fill-rule="evenodd" fill="#dfe3c9" id="path6" d="m56.48988,12.6332c-0.4879,0.4236 -1.4545,1.2217 -3.0211,2.5c-1.737,1.4188 -4.0064,3.1824 -5.734,4.4583c-0.2942,0.2167 -0.6818,0.5074 -0.8615,0.6404c-0.8172,0.6133 -2.8624,2 -3.9691,2.6921c-3.4086,2.1282 -6.2103,3.611 -8.2882,4.377c-0.2568,0.0961 -0.572,0.2143 -0.7004,0.2635c-1.8351,0.7045 -3.5301,1.239 -6.1987,1.9459c-2.1479,0.569 -3.3316,0.8473 -4.8211,1.1355c-0.3853,0.0739 -0.7635,0.1502 -0.8405,0.1675c-0.495,0.1182 -1.9052,0.3941 -2.7783,0.5443c-0.3596,0.0616 -0.6865,0.1158 -0.7285,0.1232c-0.084,0.0148 -0.0817,-0.0074 -0.1237,0.7389c-0.0444,0.7389 -0.1214,1.537 -0.1985,2.0198c-0.1704,1.0862 -0.4132,2.0222 -0.8498,3.2833c-0.2195,0.6355 -0.3012,0.835 -0.6654,1.6035c-0.5276,1.1232 -1.2374,2.2562 -2.0452,3.2661c-0.4202,0.5271 -0.7027,0.8374 -1.2841,1.4138c-0.5487,0.5419 -0.9596,0.9064 -1.3821,1.2168c-0.2989,0.2216 -0.9433,0.633 -0.99,0.633c-0.0093,0 -0.035,0.0172 -0.056,0.0369c-0.0373,0.0345 -0.0327,0.0665 0.0607,0.4508c0.056,0.2266 0.1915,0.702 0.3012,1.0566c0.7237,2.3449 1.3868,4.7538 1.8561,6.7416c0.4015,1.7044 0.5743,2.5074 0.8638,4.0173c0.4506,2.3326 0.9386,5.579 1.095,7.2785c0.2055,2.2291 0.2662,3.239 0.3759,6.2563c0.0607,1.7069 0.0654,1.8966 0.0934,2.9804c0.1214,4.6429 0.3619,9.4016 0.5953,11.6973c0.0187,0.1847 0.0654,0.6551 0.1051,1.0492c0.1704,1.7144 0.3549,3.1873 0.5393,4.345c0.2125,1.3325 0.5627,3.234 0.7565,4.1035c0.0723,0.3251 0.1867,0.8572 0.2568,1.1823c0.1914,0.8941 0.4599,1.9163 0.9035,3.4237c0.6374,2.1749 1.5549,4.5863 2.5472,6.68c0.4739,1 0.6887,1.4162 1.3821,2.6798c0.1121,0.202 0.5043,0.8498 0.8709,1.436c0.7027,1.1183 1.6693,2.505 2.3347,3.3523c0.1774,0.2242 0.4786,0.6059 0.6677,0.8473c0.3199,0.4089 1.2958,1.5789 1.646,1.9754c0.6864,0.7784 1.5969,1.7612 2.1503,2.3252c1.0016,1.0197 1.0809,1.0986 1.7743,1.7784c0.7798,0.7685 0.7518,0.7414 1.2841,1.2044c0.4973,0.436 1.018,0.8941 1.8911,1.6749c0.5627,0.5025 1.9215,1.6577 2.7293,2.3178c2.3067,1.8868 3.6048,2.9213 4.5901,3.6602c0.1797,0.1355 0.579,0.436 0.8872,0.6724c0.3081,0.234 0.8031,0.606 1.0973,0.8252c0.2965,0.2167 0.7868,0.5837 1.0926,0.8153c0.3059,0.229 0.579,0.4335 0.6094,0.4532c0.028,0.0197 0.3502,0.2586 0.7144,0.532c0.3666,0.271 1.0343,0.7562 1.4826,1.0813c1.9868,1.4286 3.0211,2.1848 4.1464,3.0296c0.4716,0.3523 1.0786,0.8006 1.3518,0.9976c0.2732,0.197 0.7821,0.5788 1.1323,0.8498c0.3502,0.2709 0.9106,0.702 1.2468,0.9557l0.6117,0.463l0.9035,-0.6823c0.4973,-0.3768 1.1557,-0.8694 1.4639,-1.0936c0.9338,-0.6798 1.1556,-0.8448 2.0779,-1.5419c0.4879,-0.367 1.3284,-0.9877 1.8677,-1.3818c1.5129,-1.101 1.6063,-1.1675 2.8367,-2.0739c1.2257,-0.8991 1.6063,-1.1823 3.4087,-2.537c2.0615,-1.5469 3.383,-2.5518 3.8056,-2.8966c0.1354,-0.1109 0.4669,-0.3769 0.7354,-0.5936c1.8864,-1.5149 2.2156,-1.7907 4.2025,-3.5051c1.1183,-0.9655 1.3658,-1.1847 2.0685,-1.8374c2.0406,-1.8892 3.3177,-3.1774 4.966,-5.0125c1.1136,-1.2389 1.7954,-2.0517 2.7386,-3.2636c0.8008,-1.032 1.5549,-2.0961 2.0802,-2.9434c0.6701,-1.0788 0.9432,-1.532 1.1113,-1.8498c0.1004,-0.1946 0.3876,-0.7365 0.6351,-1.2044c0.9922,-1.8769 1.9845,-4.2046 2.7853,-6.5396c0.3175,-0.9261 0.9245,-2.9877 1.2094,-4.1134c0.1027,-0.4089 0.5393,-2.3572 0.7331,-3.2784c0.098,-0.463 0.3969,-2.3227 0.5977,-3.7045c0.1424,-0.9926 0.2474,-1.8769 0.4179,-3.5222c0.0537,-0.5074 0.1004,-0.9582 0.105,-0.9976c0.0397,-0.3153 0.0771,-0.8399 0.2102,-2.9681c0.0817,-1.335 0.1727,-2.8867 0.1984,-3.4483c0.1401,-3.0198 0.1494,-3.2661 0.1985,-5.1233c0.007,-0.2635 0.0186,-0.564 0.0233,-0.665c0.007,-0.101 0.0163,-0.367 0.0233,-0.5912c0.007,-0.2241 0.0187,-0.4729 0.0234,-0.5542c0.005,-0.0812 0.021,-0.6478 0.035,-1.2561c0.0444,-1.9459 0.1705,-4.2095 0.3292,-5.8992c0.1074,-1.165 0.2965,-2.8276 0.3946,-3.4607c0.0373,-0.2438 0.105,-0.7093 0.1517,-1.0345c0.1214,-0.8424 0.4156,-2.5715 0.537,-3.1651c0.0561,-0.2783 0.1564,-0.7709 0.2218,-1.096c0.1541,-0.7784 0.1728,-0.8547 0.6304,-2.8129c0.2171,-0.9212 0.4483,-1.8646 0.5136,-2.0937c0.0654,-0.2266 0.2195,-0.7808 0.3409,-1.2266c0.4413,-1.6133 0.7191,-2.5813 1.0483,-3.6577c0.1424,-0.4655 0.4132,-1.5271 0.3992,-1.5641c-0.005,-0.0172 -0.1144,-0.0886 -0.2405,-0.1601c-0.9899,-0.5616 -2.4654,-1.8596 -3.432,-3.0247c-0.663,-0.798 -1.0926,-1.4581 -1.5922,-2.436c-0.0958,-0.1872 -0.3059,-0.5961 -0.4693,-0.9064c-0.1635,-0.3128 -0.3923,-0.7956 -0.509,-1.0739c-0.4739,-1.1207 -0.9245,-2.771 -1.0553,-3.8646c-0.0257,-0.2242 -0.0513,-0.4409 -0.0584,-0.4803c-0.021,-0.1454 -0.0793,-0.8227 -0.1284,-1.5149c-0.028,-0.3867 -0.0583,-0.7093 -0.0677,-0.7167c-0.007,-0.0074 -0.3455,-0.0665 -0.7494,-0.1306c-1.039,-0.165 -3.411,-0.6502 -5.6617,-1.1576c-2.1596,-0.4853 -4.9006,-1.2439 -6.759,-1.8671c-0.1611,-0.0517 -0.5907,-0.1945 -0.9572,-0.3152c-0.3666,-0.1183 -0.8125,-0.2735 -0.9923,-0.3449c-0.1798,-0.069 -0.5533,-0.2143 -0.8288,-0.3202c-0.6234,-0.2364 -2.0312,-0.8621 -2.7666,-1.2266c-0.2172,-0.1059 -0.5604,-0.2759 -0.7588,-0.3744c-0.1985,-0.0985 -0.5814,-0.3079 -0.8522,-0.4631c-0.4623,-0.266 -1.3798,-0.7931 -2.3347,-1.335c-0.2311,-0.1305 -0.5463,-0.3202 -0.7004,-0.4187c-0.1541,-0.0985 -0.5207,-0.3301 -0.8172,-0.5173c-1.4802,-0.931 -2.0382,-1.3029 -3.5697,-2.3793c-1.4312,-1.005 -2.3908,-1.7193 -4.2049,-3.1356c-1.7837,-1.3891 -2.1082,-1.6527 -4.3308,-3.4976c-1.1581,-0.9606 -2.0102,-1.665 -2.127,-1.7586l-0.0817,-0.0641l-0.4903,0.4237zm1.3798,4.5001c0.3736,0.3029 1.0553,0.8744 1.5176,1.2685c1.3495,1.1503 3.6165,2.9877 5.1364,4.1626c1.66,1.2833 3.8569,2.8548 5.3348,3.8179c4.7815,3.1183 8.4306,4.7464 14.195,6.3277c1.5573,0.4261 3.7333,0.9187 6.2687,1.4187c1.1931,0.234 2.1877,0.4409 2.2017,0.4557c0.007,0.0074 0.0257,0.2365 0.0443,0.5123c0.1004,1.6528 0.2592,2.6676 0.6164,3.9361c0.2685,0.9532 0.5767,1.7907 0.9245,2.5099c0.8592,1.7636 1.8211,3.1281 3.1869,4.5149c0.6164,0.6256 1.1324,1.0665 1.7371,1.4852c0.2684,0.1848 0.4902,0.3375 0.4926,0.3399c0.002,0.0025 -0.1168,0.4015 -0.2638,0.8868c-0.2195,0.7266 -0.8709,3.0345 -1.3472,4.7685c-0.2054,0.7414 -0.8078,3.3252 -0.9946,4.2489c-0.7821,3.8893 -1.0272,5.4878 -1.3448,8.7687c-0.1681,1.7291 -0.2334,3.0887 -0.3735,7.845c-0.0444,1.5246 -0.1027,3.17 -0.1284,3.6577c-0.0257,0.4877 -0.0747,1.5517 -0.1051,2.3646c-0.1074,2.7414 -0.2918,5.1232 -0.6303,8.1529c-0.2966,2.638 -0.6771,4.9385 -1.2188,7.3647c-0.4833,2.1798 -1.1393,4.3547 -2.0288,6.7489c-1.2444,3.3375 -3.1986,6.8524 -5.4516,9.7933c-3.1565,4.1208 -6.5722,7.5396 -12.0448,12.0544c-1.688,1.3942 -3.474,2.8006 -5.4515,4.2982c-0.3456,0.2611 -1.0763,0.8177 -1.6227,1.2315c-0.8801,0.67 -2.8927,2.1848 -5.183,3.9041c-0.4179,0.3128 -1.3075,0.9926 -1.9799,1.5098c-1.4288,1.1035 -2.2179,1.7045 -2.2343,1.7045c-0.007,0 -0.4366,-0.3251 -0.9525,-0.7217c-0.516,-0.3965 -1.695,-1.2907 -2.6196,-1.9877c-0.9245,-0.6971 -2.0802,-1.5715 -2.5682,-1.9459c-0.4879,-0.3744 -1.3961,-1.0616 -2.0195,-1.5271c-0.6234,-0.4655 -1.6366,-1.2315 -2.253,-1.6995c-0.6164,-0.468 -1.5946,-1.2094 -2.1736,-1.6429c-2.3044,-1.7316 -6.3434,-5.1134 -8.4984,-7.1135c-1.5362,-1.4286 -2.2833,-2.17 -3.6398,-3.6109c-1.4475,-1.537 -2.2296,-2.4385 -3.2546,-3.7489c-1.7533,-2.2463 -2.9697,-4.1232 -4.1464,-6.409c-0.5884,-1.1429 -1.3938,-2.8744 -1.3542,-2.9138c0.0117,-0.0123 0.2032,0.0936 0.5277,0.2931c2.274,1.3966 5.4189,4.3917 7.5948,7.2366c1.1604,1.5173 2.0872,2.9804 2.6639,4.2021c0.4319,0.9138 0.6397,1.5197 0.8288,2.4064c0.0374,0.1798 0.0701,0.1823 0.2802,0.0394c0.5346,-0.3694 1.5502,-1.7143 3.2359,-4.2932c1.2281,-1.8769 2.6382,-4.2242 2.9301,-4.8745c0.1167,-0.2586 0.084,-0.2955 -0.1214,-0.1453c-0.1284,0.0912 -0.488,0.404 -0.6748,0.5887c-0.1704,0.1675 -0.4599,0.4163 -0.628,0.537c-0.1704,0.1256 -0.2732,0.1576 -0.3315,0.1083c-0.0234,-0.0172 -0.0701,-0.1625 -0.1121,-0.3374c-0.1191,-0.4951 -0.3619,-1.0468 -0.7634,-1.7217c-1.3121,-2.2168 -4.3076,-5.5593 -6.9318,-7.7317c-1.4288,-1.1799 -2.6102,-1.9533 -3.425,-2.239c-0.1121,-0.0394 -0.2055,-0.0763 -0.2055,-0.0837c0,-0.007 0.3012,-0.3843 0.6678,-0.8375c0.3665,-0.4532 0.6724,-0.8424 0.6817,-0.867c0.0093,-0.0222 0.1471,-0.1995 0.3082,-0.3941c1.1183,-1.3473 2.288,-3.1676 3.6351,-5.6479c1.3401,-2.473 2.6709,-5.0937 3.3807,-6.6627c0.1517,-0.3325 0.2778,-0.6059 0.2801,-0.6109c0.0187,-0.0221 0.1705,0.0862 0.3549,0.2513c0.2382,0.2093 0.6934,0.6995 1.3308,1.4212c0.8662,0.9828 1.4172,1.4508 1.7113,1.4508c0.1238,0 0.2335,-0.0739 0.4973,-0.34c0.5417,-0.5492 1.3425,-1.601 2.9861,-3.9237c1.3098,-1.8473 2.183,-3.0345 2.4702,-3.3547l0.1377,-0.1527l0.0024,1.4039c0.0023,3.973 0.1494,9.8722 0.3035,12.254c0.0116,0.197 0.0397,0.6453 0.0583,0.9975c0.2382,4.2095 0.7401,8.6529 1.3191,11.6949c0.404,2.1183 0.7682,3.3547 1.3658,4.6356c0.2779,0.601 0.5324,1.0197 0.8079,1.33c0.1074,0.1232 0.2661,0.3178 0.3525,0.4335c0.1331,0.1799 0.1868,0.2316 0.3502,0.3326c0.1051,0.0665 0.2405,0.165 0.2989,0.2192c0.0583,0.0542 0.2124,0.1625 0.3432,0.2414c0.2358,0.1404 0.2358,0.1404 0.4319,0.1404c0.1447,0 0.2101,-0.01 0.2498,-0.0419c0.0537,-0.0394 0.056,-0.0394 0.042,0.0123c-0.0093,0.0296 -0.021,0.0788 -0.028,0.1084c-0.014,0.0542 -0.0117,0.0542 0.0163,0.01c0.1074,-0.1675 0.1938,-0.3103 0.2335,-0.3965c0.0257,-0.0542 0.4179,-0.7636 0.8709,-1.5764c1.4988,-2.6922 1.5946,-2.872 2.2646,-4.2243c0.9829,-1.9803 1.583,-3.4311 2.3137,-5.5937c0.9409,-2.7956 1.3215,-4.4459 1.5573,-6.7587c0.056,-0.5518 0.0513,1.1305 0.07,-28.8677c0.005,-8.4558 0.014,-11.1677 0.035,-11.4411c0.1448,-1.803 0.3923,-3.1257 0.8686,-4.6282c0.4716,-1.4877 1.8047,-4.5075 2.5495,-5.7735c0.1027,-0.1749 0.1821,-0.3227 0.1751,-0.3301c-0.0164,-0.0172 -0.1658,0.0345 -0.2849,0.0986c-0.4062,0.2142 -1.1463,1.0074 -2.1269,2.2833c-1.3448,1.7463 -2.4725,3.8596 -3.5488,6.6454c-0.8848,2.2883 -1.3868,4.4435 -1.6319,7.0002c-0.1191,1.266 -0.1144,0.7611 -0.1214,10.3081c-0.005,4.8769 -0.0117,13.4338 -0.014,19.0152c-0.007,7.1602 -0.0164,10.249 -0.0351,10.4928c-0.1027,1.367 -0.105,1.3991 -0.1377,1.3498c-0.0187,-0.0246 -0.1051,-0.1946 -0.1915,-0.3769c-0.9432,-1.968 -1.6039,-5.3153 -2.1035,-10.6406c-0.3409,-3.6478 -0.4973,-6.8154 -0.6351,-12.7096c-0.0187,-0.7759 -0.0303,-6.675 -0.042,-18.3256c-0.0117,-12.2886 -0.0234,-17.2862 -0.042,-17.5498c-0.0701,-0.9828 -0.1378,-1.5148 -0.2522,-1.9951c-0.1587,-0.6798 -0.3292,-1.0468 -0.4833,-1.0468c-0.1074,0 -0.3735,0.2019 -0.8335,0.6256c-0.147,0.1355 -1.0296,1.0468 -1.9611,2.0222c-1.5643,1.6404 -2.1596,2.239 -2.4958,2.5099c-0.0724,0.0567 -0.2872,0.1971 -0.481,0.3104c-1.0996,0.6428 -2.0055,1.3596 -2.9744,2.3522c-1.186,1.2168 -2.2507,2.7218 -3.2242,4.5568c-0.6281,1.1823 -1.597,3.3473 -2.1526,4.8129c-1.1067,2.9188 -1.7394,5.1898 -2.5495,9.1406c-0.7938,3.8769 -1.1837,6.5962 -1.5409,10.7638c-0.1355,1.5641 -0.1541,1.9064 -0.1775,3.1281c-0.0397,2.138 -0.1144,3.3375 -0.3035,4.9755c-0.5416,4.6528 -1.9985,9.3623 -3.9877,12.8944c-0.1751,0.3103 -0.3572,0.5542 -1.674,2.2291c-1.8397,2.34 -2.8437,3.67 -4.025,5.34c-0.2242,0.3153 -0.4156,0.5641 -0.4249,0.5542c-0.0397,-0.0443 -0.3643,-0.9163 -0.6654,-1.7931c-0.8102,-2.3695 -1.6343,-5.5814 -2.0966,-8.1899c-0.4226,-2.3793 -0.628,-3.9015 -0.9105,-6.7366c-0.2942,-2.9237 -0.509,-7.0444 -0.6444,-12.3278c-0.0864,-3.3967 -0.1214,-4.1824 -0.2802,-6.3918c-0.1144,-1.5813 -0.3012,-3.3646 -0.4786,-4.5691c-0.1611,-1.0788 -0.3619,-2.3104 -0.4786,-2.9187c-0.0654,-0.3399 -0.1704,-0.9089 -0.2358,-1.2685c-0.1821,-1.0099 -0.6467,-3.0765 -1.0016,-4.4706c-0.1004,-0.3941 -0.2522,-0.9975 -0.3386,-1.3424c-0.084,-0.3448 -0.2474,-0.9384 -0.3618,-1.3177c-0.1144,-0.3794 -0.2989,-1.0124 -0.4086,-1.404c-0.3012,-1.069 -0.6911,-2.3868 -0.7144,-2.4114c-0.0327,-0.0394 -0.0234,-0.0887 0.0186,-0.1059c0.0794,-0.0296 0.4647,-0.3128 0.8125,-0.5961c2.0102,-1.6306 3.2593,-3.1922 4.3963,-5.4976c0.4086,-0.8276 0.7144,-1.5863 0.9409,-2.3375c0.4903,-1.6183 0.7074,-2.8449 0.7658,-4.3302c0.0116,-0.2758 0.0257,-0.5049 0.0303,-0.5098c0.0047,-0.0074 0.4249,-0.0887 0.9292,-0.1848c4.1138,-0.7783 7.791,-1.67 10.3662,-2.5148c2.5471,-0.8375 4.3682,-1.5641 6.1403,-2.4533c1.2233,-0.6157 3.0024,-1.6133 3.8522,-2.1626c0.2895,-0.1847 0.8335,-0.532 1.2117,-0.7685c2.0032,-1.2561 5.4329,-3.7833 7.9684,-5.8745c0.4086,-0.335 1.039,-0.8571 1.4009,-1.1601c0.3642,-0.303 0.9595,-0.7956 1.3261,-1.0936c0.3665,-0.3005 1.0179,-0.8449 1.4475,-1.2119c0.6607,-0.5616 0.7868,-0.6576 0.8171,-0.633c0.0187,0.0173 0.3409,0.2808 0.7121,0.5813zm-10.9965,59.6269c-0.0443,0.0468 -0.5976,-0.3227 -1.186,-0.7882c-1.5246,-1.2094 -3.1542,-2.7069 -3.4413,-3.1675c-0.0678,-0.1035 -0.1028,-0.1429 -0.1168,-0.1232c-0.0093,0.0172 -0.07,0.1379 -0.1307,0.266c-0.2475,0.5025 -0.8242,1.4262 -1.6507,2.6356c-0.7237,1.0591 -1.3634,1.9236 -1.4872,2.0074l-0.0537,0.0369l0,-0.4236c0,-1.2143 0.2732,-4.8105 0.5604,-7.3721c0.0256,-0.2315 0.1003,-0.9114 0.1634,-1.5148c0.635,-5.9041 1.3448,-10.2219 2.4281,-14.7787c0.7354,-3.0887 1.2561,-4.7636 1.9284,-6.207c0.8546,-1.8399 1.7954,-2.8055 2.8227,-2.904l0.1634,-0.0148l0.007,16.1679c0.0024,8.8918 0,16.1752 -0.007,16.1801z"/>
   <path fill-rule="evenodd" fill="#dfe3c9" id="path8" d="m79.93278,34.4169c-0.9176,0.0838 -2.0219,0.5493 -2.8834,1.2119c-0.7588,0.5862 -1.7907,1.6675 -2.825,2.9705c-1.0903,1.3719 -1.0086,1.2759 -1.5759,1.8843c-1.7861,1.9236 -3.0188,3.3276 -4.422,5.0346c-0.5603,0.6822 -1.4545,1.8153 -1.7417,2.2044c-0.8685,1.1774 -1.3471,1.8892 -1.8257,2.7119c-0.5907,1.0124 -0.8919,1.6996 -1.1113,2.537l-0.0747,0.2833l-0.0141,18.1531c-0.009,12.1973 -0.021,18.3107 -0.0396,18.6334c-0.0281,0.5493 -0.0654,1.1503 -0.0981,1.5271c-0.0117,0.1429 -0.028,0.3523 -0.035,0.468c-0.009,0.1158 -0.0351,0.3917 -0.0607,0.6158c-0.0257,0.2241 -0.0514,0.4606 -0.0584,0.5296c-0.005,0.0665 -0.021,0.1945 -0.035,0.2832c-0.0117,0.0887 -0.042,0.3153 -0.0677,0.5049c-0.1261,0.9262 -0.2895,1.8375 -0.4927,2.7464c-0.0887,0.3966 -0.3665,1.5666 -0.3945,1.6626c-0.0117,0.0394 -0.0397,0.1404 -0.0607,0.2217c-0.021,0.0813 -0.0514,0.197 -0.0677,0.2586c-0.1331,0.4951 -0.1238,0.4582 -0.2475,0.8867c-0.2662,0.9139 -0.7308,2.2833 -0.9409,2.7637c-0.0327,0.0763 -0.0607,0.1453 -0.0607,0.1551c0,0.0123 -0.2124,0.5099 -0.4506,1.0592c-0.1401,0.3202 -0.6677,1.4335 -0.8218,1.7364c-0.0724,0.1429 -0.1868,0.3646 -0.2522,0.4927c-0.0653,0.1281 -0.2007,0.3842 -0.3035,0.5665c-0.1004,0.1823 -0.2054,0.3719 -0.2311,0.4187c-0.0257,0.0468 -0.1121,0.1971 -0.1938,0.3325c-0.4646,0.7858 -0.8918,1.5346 -1.0389,1.8301c-0.1004,0.1995 -0.1098,0.2907 -0.0304,0.2587c0.0234,-0.007 0.035,-0.005 0.0234,0.005c-0.009,0.0123 0.2498,0.3054 0.5743,0.6502c2.4304,2.5962 4.6951,5.8869 6.131,8.9116c0.6607,1.3966 1.1416,2.8227 1.298,3.8547c0.0187,0.133 0.0421,0.2562 0.0491,0.2784c0.021,0.0542 0.07,0.0443 0.1821,-0.0345c0.4202,-0.3054 1.2304,-1.5961 2.6102,-4.1528c1.2514,-2.3227 2.8507,-5.6085 2.9674,-6.1036c0.014,-0.0566 0.009,-0.0665 -0.0303,-0.0665c-0.0514,0 -0.2662,0.2192 -0.9456,0.9655c-0.3829,0.4188 -0.5136,0.5271 -0.6047,0.5025c-0.0583,-0.0148 -0.1074,-0.1281 -0.1074,-0.2512c0,-0.0961 -0.1401,-0.6257 -0.2475,-0.9385c-0.5673,-1.6576 -2.2716,-4.3868 -4.3519,-6.9755c-0.6934,-0.8621 -1.1603,-1.4015 -1.8981,-2.1872l-0.4903,-0.5197l0.3479,-0.4656c0.1891,-0.2537 0.3992,-0.5345 0.4646,-0.6231c0.5463,-0.7267 1.4709,-2.0321 2.1153,-2.9853c0.8568,-1.2636 0.9665,-1.4336 1.8257,-2.7907c0.7518,-1.1897 0.9082,-1.441 1.0903,-1.7513c0.0584,-0.101 0.3012,-0.5123 0.5393,-0.9138c1.0133,-1.7143 1.6717,-2.9336 2.239,-4.1577c0.2288,-0.4951 0.4436,-0.9705 0.4436,-0.9853c0,-0.005 0.0374,-0.0936 0.0817,-0.1946c0.0444,-0.1034 0.0818,-0.1946 0.0818,-0.202c0,-0.007 0.028,-0.0763 0.0607,-0.1527c0.0933,-0.2143 0.4039,-1.0616 0.4996,-1.3596c0.3082,-0.968 0.4879,-1.7562 0.6117,-2.6848c0.0513,-0.3793 0.0513,-0.4187 0.063,-5.0592c0.0117,-4.1577 0.0187,-4.675 0.049,-4.643c0.0187,0.0197 0.1191,0.1133 0.2218,0.2069c0.2312,0.2094 0.3456,0.3153 1.1651,1.0715c0.3572,0.3325 0.698,0.6478 0.7587,0.702c0.1214,0.1108 1.4709,1.3694 2.2554,2.1059c0.2825,0.2636 0.551,0.5124 0.593,0.5542c0.0444,0.0394 0.1447,0.1355 0.2241,0.2094c0.0771,0.0739 0.2358,0.2241 0.3502,0.3325c0.2125,0.202 0.2522,0.2389 0.7588,0.7266c0.9012,0.8695 1.6063,1.606 1.7581,1.8449l0.056,0.0837l-0.2848,0.3843c-0.3035,0.4089 -0.572,0.7906 -1.5456,2.1724c-0.9036,1.2858 -0.9316,1.3252 -1.7067,2.4361c-0.3922,0.5615 -0.8452,1.2093 -1.0086,1.4409c-0.2475,0.3522 -0.53,0.7611 -1.0576,1.5222c-0.0467,0.0714 -0.1121,0.1675 -0.1424,0.2143c-0.0304,0.0468 -0.1635,0.2438 -0.2965,0.4359c-0.1331,0.1922 -0.3689,0.537 -0.523,0.771c-0.1541,0.2315 -0.3526,0.5296 -0.4413,0.6601c-0.2264,0.3374 -0.4155,0.6281 -0.7938,1.2242c-0.2965,0.463 -0.4342,0.6872 -0.8428,1.3547c-0.0677,0.1084 -0.1821,0.3054 -0.2568,0.4409c-0.1168,0.2069 -0.1331,0.2463 -0.1028,0.2709c0.0187,0.0148 0.3666,0.3202 0.7705,0.6774c0.6397,0.569 0.8522,0.7783 1.6693,1.6379c0.8335,0.8794 1.1627,1.2464 1.8771,2.0838c1.081,1.2661 2.2694,2.8449 3.1636,4.1996c0.5696,0.8646 1.2957,2.0493 1.688,2.7587c0.3922,0.7094 0.9292,1.7858 1.1533,2.3153c0.5603,1.3252 0.8755,2.3425 1.0716,3.4706c0.0187,0.1009 0.0444,0.1724 0.0654,0.1822c0.0584,0.0247 0.2405,-0.101 0.453,-0.3128c0.2941,-0.298 0.5159,-0.5813 1.1159,-1.4434c0.3292,-0.4729 1.2935,-2.0493 2.0873,-3.4114c1.7417,-2.9877 3.7589,-6.8179 3.8943,-7.3942c0.0537,-0.2192 -0.1705,-0.0394 -0.9409,0.7561c-0.8125,0.84 -1.0249,1.0148 -1.1604,0.9508c-0.0653,-0.032 -0.091,-0.0985 -0.1237,-0.3177c-0.0654,-0.436 -0.3245,-1.1971 -0.6327,-1.8523c-1.1744,-2.5074 -3.8896,-6.1996 -6.8617,-9.3352c-0.6444,-0.6773 -1.3752,-1.399 -1.9682,-1.9409c-0.1564,-0.1429 -0.2451,-0.2414 -0.2335,-0.2586c0.009,-0.0173 0.1495,-0.2193 0.3105,-0.4483c0.8522,-1.2143 1.1254,-1.5937 1.1557,-1.606c0.0187,-0.007 0.2405,-0.3177 0.495,-0.6921c0.2521,-0.3769 0.5019,-0.7439 0.5556,-0.8202c0.0514,-0.0764 0.2359,-0.3498 0.4086,-0.6109c0.1728,-0.2586 0.474,-0.7069 0.6654,-0.9951c0.3385,-0.5024 0.4833,-0.7217 0.9035,-1.3571c0.1074,-0.1626 0.2359,-0.3597 0.2872,-0.436c0.2965,-0.4434 0.9432,-1.4237 1.1534,-1.7488c0.084,-0.1281 0.2101,-0.3178 0.2778,-0.4188c0.1611,-0.2413 0.3806,-0.5714 0.9619,-1.463c0.2662,-0.4064 0.5673,-0.8671 0.6701,-1.0222c0.7214,-1.0986 1.6599,-2.5789 2.1432,-3.3745c0.1518,-0.2512 0.2919,-0.4828 0.3152,-0.5172c0.1004,-0.1552 0.6771,-1.1552 0.6771,-1.1725c0,-0.005 0.0257,-0.0517 0.0537,-0.1034c0.1074,-0.1774 0.4016,-0.7661 0.4809,-0.9656c0.1751,-0.4261 0.1845,-0.5591 0.0607,-0.8128c-0.1097,-0.2168 -0.4039,-0.6035 -0.7494,-0.9828c-0.516,-0.5665 -1.6997,-1.6872 -2.6616,-2.5148c-0.1634,-0.1429 -0.3409,-0.298 -0.3946,-0.3473c-0.077,-0.0739 -1.3354,-1.1355 -2.0312,-1.7143c-0.1027,-0.0838 -0.2708,-0.2242 -0.3735,-0.3104c-0.1027,-0.0862 -0.2755,-0.2291 -0.3852,-0.3177c-0.1098,-0.0862 -0.2569,-0.2069 -0.3269,-0.2636c-1.4639,-1.1872 -2.4491,-1.9261 -3.0305,-2.2783c-0.5346,-0.3203 -0.593,-0.3079 -1.1393,0.266c-0.6047,0.6379 -1.4148,1.7192 -2.6966,3.601c-0.4809,0.702 -0.5883,0.8621 -1.0763,1.5986c-0.2661,0.399 -0.8358,1.2512 -1.0576,1.5764c-0.0911,0.1355 -0.3059,0.4557 -0.4786,0.7143c-0.5604,0.8399 -1.3121,1.9458 -1.3448,1.9828c-0.0304,0.032 -0.0327,-1.4335 -0.0234,-10.8377c0.005,-6.6011 0.0187,-10.9855 0.0327,-11.1579c0.0117,-0.1551 0.014,-0.3005 0.005,-0.3202c-0.0234,-0.0517 0.0163,-2.0641 0.0584,-2.9434c0.021,-0.4064 0.0467,-0.9409 0.056,-1.1872c0.0233,-0.5271 0.0327,-0.5493 0.2591,-0.7562c0.1798,-0.165 0.3783,-0.2783 0.6724,-0.3842l0.2148,-0.0813l0.2989,0.0295c0.3338,0.0345 1.0459,0.1552 1.242,0.2143c0.6888,0.202 1.3939,0.7513 2.1153,1.6479c1.2514,1.5566 2.2367,3.7882 2.6569,6.0223c0.1167,0.6207 0.1588,1.0172 0.1704,1.6847c0.014,0.6897 -0.021,1.1848 -0.1237,1.7193c-0.0117,0.0591 -0.005,0.0689 0.0374,0.0689c0.056,0 0.2614,-0.133 0.4319,-0.2783c0.6724,-0.5813 2.4701,-2.4754 4.1207,-4.34c1.0577,-1.1946 2.0102,-2.3991 2.4328,-3.069c0.3012,-0.4754 0.3712,-0.6478 0.4599,-1.1306c0.1378,-0.7291 0.1635,-1.9409 0.0584,-2.734c-0.2101,-1.606 -0.614,-2.8917 -1.3051,-4.1504c-0.5813,-1.0566 -1.4569,-2.1133 -2.3114,-2.7857c-1.0366,-0.8178 -2.3277,-1.3449 -3.6655,-1.5001c-0.2568,-0.0295 -0.9455,-0.0419 -1.1673,-0.0197l-0.0003,-0.0001z"/>
   <path fill-rule="evenodd" fill="#dfe3c9" id="path10" d="m33.09838,35.2273c-1.3214,0.1527 -2.323,0.6699 -3.2942,1.6971c-0.3829,0.4039 -0.7448,0.8891 -1.1651,1.564c-0.5113,0.8202 -0.7354,1.2464 -2.2646,4.2735c-0.2662,0.5271 -0.593,1.1651 -0.7238,1.4163c-2.0545,3.9114 -3.4787,7.2637 -4.1534,9.7786c-0.446,1.6576 -0.7075,3.3843 -0.8569,5.6282c-0.0373,0.5862 -0.0537,3.0912 -0.0233,3.7956c0.098,2.2168 0.3735,3.776 0.8545,4.8006c0.1728,0.3695 0.2801,0.5394 0.537,0.8522c0.7004,0.8474 1.723,1.3548 2.9184,1.4508c0.551,0.0419 0.5136,0.0493 0.6817,-0.1355c0.3876,-0.4285 1.2,-1.8153 2.4304,-4.1503c1.3518,-2.569 2.1129,-4.2316 2.246,-4.909c0.014,-0.0788 0.0234,-0.1478 0.0187,-0.1527c-0.0023,-0.002 -0.1658,-0.0197 -0.3619,-0.0345c-1.6553,-0.128 -2.6359,-0.9015 -3.2849,-2.5838c-0.6374,-1.6503 -0.8709,-4.0099 -0.9362,-9.4386c-0.0164,-1.2192 0.0046,-1.8202 0.0723,-2.3055c0.1284,-0.9113 0.4343,-1.5764 0.8966,-1.936c0.5813,-0.4532 1.5292,-0.6946 2.86,-0.7266c0.5043,-0.0098 0.6444,-0.0074 0.8288,0.0271c0.8825,0.1626 1.9448,0.8621 3.0118,1.9853c0.7308,0.766 1.3028,1.5542 1.8538,2.5444c0.7611,1.3719 1.165,2.6232 1.2537,3.8818c0.021,0.2981 0.0373,0.3966 0.0607,0.3966c0.2171,0 1.5806,-2.1035 3.1869,-4.9213c1.0086,-1.771 1.5712,-2.9015 1.8094,-3.6479c0.0724,-0.2216 0.0864,-0.3029 0.0957,-0.5369c0.0327,-0.8498 -0.2031,-2.0617 -0.6047,-3.0912c-0.2521,-0.6454 -0.6957,-1.5001 -1.0483,-2.0149c-0.6117,-0.8941 -1.3494,-1.6527 -2.2063,-2.2636c-0.9525,-0.6798 -1.9214,-1.0714 -3.0328,-1.2241c-0.3945,-0.0542 -1.2747,-0.0641 -1.6599,-0.0197l-0.0001,0z"/>
   <path fill-rule="evenodd" fill="#dfe3c9" id="path12" d="m37.20988,20.6949c-0.3175,0.0813 -0.6958,0.367 -0.9129,0.6872c-0.1401,0.2045 -0.2615,0.4902 -0.2942,0.6922c-0.0397,0.2414 -0.0163,0.7488 0.0444,0.9458c0.1121,0.3596 0.4646,0.8227 0.7681,1c0.2872,0.17 0.4226,0.2069 0.7868,0.2069c0.3619,0 0.5206,-0.032 0.7471,-0.1527c0.4063,-0.2143 0.7728,-0.697 0.8895,-1.165c0.0467,-0.1946 0.0467,-0.7143 0,-0.9114c-0.0863,-0.3571 -0.3315,-0.7512 -0.6093,-0.9852c-0.1775,-0.1503 -0.3152,-0.2266 -0.5557,-0.3054c-0.1914,-0.0616 -0.642,-0.069 -0.8638,-0.0124z"/>
   <path fill-rule="evenodd" fill="#dfe3c9" id="path14" d="m75.65558,20.6925c-0.2195,0.064 -0.5393,0.2561 -0.7098,0.431c-0.7144,0.7316 -0.7097,1.9212 0.009,2.6577c0.1564,0.1601 0.2708,0.2365 0.5183,0.3473c0.1798,0.0813 0.1984,0.0862 0.5416,0.0936c0.3969,0.0099 0.4856,-0.0074 0.7822,-0.1552c0.4272,-0.2118 0.7401,-0.6354 0.8848,-1.1946c0.0701,-0.2758 0.0561,-0.6896 -0.0327,-0.9729c-0.1097,-0.3522 -0.3222,-0.67 -0.6,-0.8966c-0.3339,-0.2734 -0.5463,-0.3473 -0.9782,-0.3448c-0.1751,0 -0.3432,0.0148 -0.4156,0.0345l0.0004,0z"/>
   <path fill-rule="evenodd" fill="#dfe3c9" id="path16" d="m15.50168,27.8626c-0.4576,0.1158 -0.8895,0.5246 -1.1136,1.0517c-0.0911,0.2119 -0.1191,0.3843 -0.1191,0.7045c0.0023,0.3202 0.0397,0.5123 0.1447,0.7463c0.2102,0.4631 0.558,0.803 0.9829,0.9582c0.1752,0.064 0.2195,0.0714 0.5067,0.0714c0.3455,0 0.4716,-0.0271 0.7097,-0.1429c0.4156,-0.2044 0.7985,-0.7044 0.9152,-1.1946c0.0281,-0.1133 0.0351,-0.2389 0.0281,-0.5197c-0.0094,-0.3399 -0.0164,-0.3867 -0.0748,-0.5443c-0.2218,-0.5739 -0.6467,-0.9951 -1.1463,-1.1331c-0.1728,-0.0468 -0.6467,-0.0468 -0.8335,0.0025z"/>
   <path fill-rule="evenodd" fill="#dfe3c9" id="path18" d="m97.52478,27.87c-0.4903,0.1404 -0.9222,0.5739 -1.123,1.1232c-0.063,0.1724 -0.0747,0.2364 -0.084,0.5246c-0.014,0.367 0.0163,0.5616 0.1354,0.8399c0.1844,0.4286 0.4996,0.7513 0.9199,0.9385c0.1774,0.0812 0.2031,0.0862 0.5183,0.0936c0.3829,0.0098 0.5183,-0.0124 0.7518,-0.1306c0.3829,-0.1946 0.705,-0.5665 0.8708,-1.0099c0.0677,-0.1822 0.0747,-0.2241 0.0841,-0.5566c0.014,-0.5 -0.0374,-0.7217 -0.2499,-1.0616c-0.2381,-0.3867 -0.5393,-0.6306 -0.9222,-0.7562c-0.2101,-0.069 -0.6724,-0.0714 -0.9012,-0.0049z"/>
   <path fill-rule="evenodd" fill="#dfe3c9" id="path20" d="m7.52168,42.3703c-0.2265,0.064 -0.4903,0.2143 -0.6584,0.3769c-0.1938,0.1896 -0.3946,0.4975 -0.488,0.7537c-0.063,0.1724 -0.0747,0.2364 -0.084,0.5172c-0.0094,0.2168 -0.0024,0.367 0.0187,0.468c0.0163,0.0813 0.0326,0.1626 0.035,0.1798c0.0023,0.0173 0.0373,0.1035 0.077,0.1946c0.2218,0.4975 0.6047,0.8547 1.0763,1.0025c0.1658,0.0517 0.6841,0.0542 0.8709,0.0024c0.4739,-0.1305 0.9152,-0.5665 1.1183,-1.1083c0.07,-0.1848 0.0747,-0.2217 0.0841,-0.569c0.007,-0.2882 0,-0.4064 -0.0281,-0.5296c-0.1447,-0.601 -0.6467,-1.1453 -1.193,-1.2907c-0.1798,-0.0468 -0.6537,-0.0468 -0.8288,0.0025z"/>
   <path fill-rule="evenodd" fill="#dfe3c9" id="path22" d="m105.22938,42.5058c-0.0584,0.0123 -0.2055,0.0714 -0.3269,0.1354c-0.1914,0.0961 -0.2498,0.1429 -0.4319,0.3399c-0.2381,0.2562 -0.4039,0.5518 -0.4669,0.8301c-0.0467,0.2094 -0.0467,0.6971 0.002,0.9089c0.1284,0.5838 0.6397,1.1429 1.1837,1.2956c0.1984,0.0542 0.7004,0.0468 0.8942,-0.0172c0.2731,-0.0887 0.5183,-0.2488 0.7051,-0.4631c0.133,-0.1503 0.3222,-0.4729 0.3922,-0.6675c0.063,-0.1774 0.0677,-0.2045 0.0677,-0.6035c0,-0.3768 -0.005,-0.4335 -0.0514,-0.5616c-0.1284,-0.3448 -0.3221,-0.6404 -0.5556,-0.8522c-0.3012,-0.2709 -0.5884,-0.3744 -1.0273,-0.3695c-0.1541,0.0025 -0.3268,0.0124 -0.3852,0.0247l0.0003,0z"/>
   <path fill-rule="evenodd" fill="#dfe3c9" id="path24" d="m12.13268,66.223c-0.0373,0.0148 -0.0817,0.0197 -0.098,0.0124c-0.0164,-0.005 -0.0351,0 -0.0421,0.0123c-0.0093,0.0148 -0.0326,0.0246 -0.056,0.0246c-0.0233,0 -0.1401,0.0517 -0.2591,0.1133c-0.1798,0.0911 -0.2522,0.1453 -0.4086,0.3128c-0.2615,0.2808 -0.4413,0.6158 -0.4973,0.9286c-0.021,0.1133 -0.021,0.6577 0,0.7513c0.1051,0.4778 0.4226,0.9507 0.7985,1.1823c0.1377,0.0862 0.4179,0.2044 0.4529,0.1921c0.014,-0.007 0.028,0 0.028,0.0148c0,0.032 0.6701,0.0344 0.6887,0c0.0094,-0.0124 0.0257,-0.0173 0.0374,-0.01c0.0117,0.01 0.035,0.007 0.0514,-0.005c0.014,-0.01 0.0326,-0.0197 0.0397,-0.0222c0.1027,-0.0222 0.4085,-0.1896 0.5323,-0.2906c0.4109,-0.3399 0.656,-0.8794 0.6583,-1.4434c0,-0.5222 -0.2498,-1.0887 -0.6257,-1.4065c-0.1727,-0.1502 -0.2661,-0.2019 -0.4879,-0.2808c-0.1004,-0.0369 -0.1985,-0.0738 -0.2171,-0.0837c-0.0514,-0.0271 -0.5137,-0.0295 -0.5954,-0.002l0,-0.0003z"/>
   <path fill-rule="evenodd" fill="#dfe3c9" id="path26" d="m100.98948,66.2748c-0.007,0.0147 -0.0303,0.0221 -0.0513,0.0197c-0.0234,-0.002 -0.0607,0.005 -0.0864,0.0147c-0.0257,0.0124 -0.0957,0.0395 -0.1588,0.0666c-0.3058,0.1231 -0.5346,0.3103 -0.7284,0.596c-0.5136,0.7636 -0.4272,1.7587 0.2101,2.4089c0.1331,0.1355 0.3783,0.3055 0.4786,0.3326c0.0327,0.007 0.0958,0.032 0.1401,0.0542c0.0444,0.0197 0.0934,0.0394 0.1051,0.0394c0.014,0 0.035,0.01 0.049,0.0197c0.0164,0.01 0.1891,0.0147 0.3876,0.01c0.2661,-0.002 0.3712,-0.0148 0.3992,-0.0394c0.0234,-0.0172 0.0397,-0.0271 0.0397,-0.0197c0,0.032 0.3946,-0.1921 0.5183,-0.2956c0.2405,-0.1995 0.474,-0.5566 0.5954,-0.9064c0.0583,-0.1724 0.0607,-0.9212 0,-1.0345c-0.0211,-0.0419 -0.0397,-0.0887 -0.0397,-0.1059c0,-0.0419 -0.1074,-0.2636 -0.1938,-0.399c-0.1144,-0.1798 -0.2101,-0.2882 -0.3666,-0.4212c-0.1727,-0.1453 -0.3105,-0.2217 -0.5019,-0.2808c-0.0771,-0.0222 -0.1564,-0.0517 -0.1775,-0.0616c-0.0513,-0.0271 -0.6023,-0.0246 -0.6187,0.002l0,0.0003z"/>
   <path fill-rule="evenodd" fill="#dfe3c9" id="path28" d="m13.40278,89.992c-0.0163,0.0124 -0.0397,0.0148 -0.049,0.01c-0.0094,-0.007 -0.0327,-0.005 -0.0467,0.007c-0.0164,0.01 -0.035,0.0197 -0.042,0.0221c-0.0164,0.003 -0.1074,0.0444 -0.3106,0.1429c-0.2754,0.133 -0.5369,0.4212 -0.7144,0.7907c-0.1237,0.2512 -0.1657,0.463 -0.1657,0.8079c0,0.532 0.1424,0.9015 0.5066,1.3005c0.1424,0.1576 0.3432,0.2906 0.579,0.3818c0.0887,0.0345 0.1798,0.0739 0.2031,0.0862c0.0421,0.0221 0.6724,0.0246 0.7075,0.002c0.014,-0.01 0.035,-0.0172 0.0466,-0.0197c0.0561,-0.007 0.1541,-0.0492 0.3503,-0.1527c0.3525,-0.1847 0.656,-0.5566 0.8194,-1.0025c0.0561,-0.1527 0.0654,-0.2143 0.0748,-0.532c0.007,-0.2783 0,-0.3941 -0.0281,-0.5172c-0.0607,-0.2513 -0.2451,-0.6109 -0.3899,-0.7636c-0.021,-0.0222 -0.042,-0.0517 -0.0467,-0.064c-0.0396,-0.1035 -0.6327,-0.473 -0.7704,-0.4804c-0.0304,-0.002 -0.0677,-0.0123 -0.0794,-0.0221c-0.0327,-0.0271 -0.6047,-0.0222 -0.6444,0.002l0,0.0011z"/>
   <path fill-rule="evenodd" fill="#dfe3c9" id="path30" d="m99.60268,90.0881c-0.4179,0.0961 -0.7844,0.3695 -1.0272,0.7685c-0.1214,0.197 -0.2265,0.4532 -0.2545,0.6133c-0.0187,0.1133 -0.0187,0.6577 0.002,0.7513c0.0537,0.2561 0.1681,0.5074 0.3362,0.7364c0.1774,0.2389 0.3549,0.3917 0.6374,0.5394l0.2428,0.1281l0.3292,0.01c0.3899,0.01 0.5136,-0.0148 0.7728,-0.1527c0.607,-0.3202 0.9689,-0.9385 0.9689,-1.6528c0,-0.5148 -0.2545,-1.0813 -0.6257,-1.3966c-0.1728,-0.1502 -0.2662,-0.2019 -0.488,-0.2808c-0.1004,-0.0369 -0.1984,-0.0714 -0.2171,-0.0788c-0.1004,-0.0369 -0.4903,-0.0271 -0.6771,0.0148l0.0003,-0.0001z"/>
   <path fill-rule="evenodd" fill="#dfe3c9" id="path32" d="m23.11748,114.9581c-0.5766,0.1601 -1.0436,0.6823 -1.2117,1.3523c-0.007,0.0271 -0.014,0.2093 -0.014,0.4064c0,0.3276 0.0047,0.3744 0.0654,0.5542c0.035,0.1108 0.1004,0.2586 0.1447,0.33c0.0444,0.0715 0.0818,0.1404 0.0818,0.1503c0,0.0123 0.091,0.1207 0.2054,0.2389c0.2148,0.2315 0.3876,0.3473 0.6747,0.4483c0.1822,0.064 0.6888,0.0739 0.9012,0.0148c0.565,-0.1552 1.067,-0.7365 1.1931,-1.3794c0.0677,-0.3399 0.0397,-0.6946 -0.0794,-1.0271c-0.0957,-0.2709 -0.3876,-0.6774 -0.5883,-0.8202c-0.0537,-0.0419 -0.1051,-0.0788 -0.1121,-0.0862c-0.0234,-0.0271 -0.2919,-0.1429 -0.4179,-0.1823c-0.1658,-0.0517 -0.6607,-0.0517 -0.8429,0z"/>
   <path fill-rule="evenodd" fill="#dfe3c9" id="path34" d="m89.68018,115.0197c-0.0584,0.0123 -0.2031,0.0714 -0.3245,0.133c-0.1868,0.0961 -0.2475,0.1429 -0.4319,0.3399c-0.2405,0.2562 -0.4063,0.5517 -0.4693,0.8325c-0.0467,0.2094 -0.0467,0.6971 0.002,0.9089c0.1051,0.4754 0.5066,0.9926 0.9292,1.1971c0.2218,0.1059 0.3526,0.133 0.6818,0.133c0.3315,0 0.5043,-0.0394 0.7447,-0.165c0.2685,-0.1454 0.5884,-0.4951 0.7331,-0.8055c0.1448,-0.3128 0.1541,-0.362 0.1541,-0.8153c0,-0.3743 -0.005,-0.4335 -0.0513,-0.5615c-0.1798,-0.4828 -0.4927,-0.8744 -0.8475,-1.0542c-0.2592,-0.1331 -0.4226,-0.17 -0.7355,-0.1675c-0.1541,0.002 -0.3268,0.0123 -0.3852,0.0246l0.0003,0z"/>
   <path fill-rule="evenodd" fill="#dfe3c9" id="path36" d="m73.86948,129.7121c-0.0723,0.0173 -0.2194,0.0789 -0.3268,0.1355c-0.1565,0.0813 -0.2335,0.1453 -0.4039,0.3276c-0.2172,0.234 -0.3129,0.3916 -0.425,0.6995c-0.049,0.1355 -0.063,0.2217 -0.0723,0.4779c-0.0164,0.4753 0.049,0.7414 0.2684,1.0911c0.2265,0.3572 0.544,0.6183 0.9129,0.7488c0.2031,0.0714 0.7028,0.0739 0.9176,0.002c0.1914,-0.0616 0.4202,-0.1922 0.5743,-0.3252c0.2592,-0.2241 0.5043,-0.6305 0.579,-0.9606c0.0467,-0.2069 0.0467,-0.7266 0,-0.9187c-0.0817,-0.3399 -0.4086,-0.8522 -0.649,-1.0148c-0.0537,-0.0394 -0.1028,-0.0739 -0.1098,-0.0813c-0.021,-0.0271 -0.2918,-0.1429 -0.4179,-0.1823c-0.1611,-0.0492 -0.656,-0.0492 -0.8475,0l0,0.0005z"/>
   <path fill-rule="evenodd" fill="#dfe3c9" id="path38" d="m39.23868,129.8057c-0.5463,0.1133 -0.9689,0.4705 -1.207,1.0173c-0.2568,0.5961 -0.1961,1.2365 0.1704,1.8079c0.2032,0.3178 0.4833,0.537 0.8615,0.6749c0.007,0.002 0.0327,0.0148 0.0584,0.0271c0.0257,0.0123 0.2195,0.0222 0.4319,0.0222l0.3853,0l0.2311,-0.1183c0.1261,-0.064 0.2942,-0.1699 0.3735,-0.2364c0.1378,-0.1158 0.3386,-0.3596 0.4086,-0.4951c0.2148,-0.4163 0.2241,-0.4606 0.2218,-0.9483c0,-0.3448 -0.007,-0.431 -0.0397,-0.4926c-0.021,-0.0419 -0.0397,-0.0887 -0.0397,-0.1059c0,-0.0789 -0.1914,-0.4163 -0.3385,-0.6035c-0.1004,-0.1256 -0.3432,-0.3251 -0.4786,-0.399c-0.2802,-0.1503 -0.7261,-0.2143 -1.039,-0.1503z"/>
   <path fill-rule="evenodd" fill="#dfe3c9" id="path40" d="m56.50388,142.0893c-0.0583,0.0123 -0.2031,0.0714 -0.3245,0.133c-0.1868,0.096 -0.2475,0.1428 -0.4319,0.3399c-0.2405,0.2561 -0.4062,0.5517 -0.4693,0.8325c-0.0513,0.2315 -0.0467,0.7069 0.009,0.936c0.1003,0.4138 0.4459,0.8941 0.7914,1.0985c0.2779,0.1651 0.4343,0.2045 0.7985,0.2045c0.3525,0 0.5183,-0.037 0.7705,-0.1724c0.3035,-0.1651 0.635,-0.5592 0.7704,-0.9114c0.028,-0.0739 0.063,-0.1626 0.0747,-0.197c0.014,-0.0345 0.0304,-0.2217 0.0374,-0.4188c0.0116,-0.4088 -0.014,-0.5616 -0.1448,-0.8497c-0.1587,-0.3572 -0.4879,-0.7217 -0.7751,-0.8621c-0.2592,-0.1256 -0.4156,-0.1601 -0.7191,-0.1577c-0.1541,0.002 -0.3292,0.0123 -0.3876,0.0247l0.0004,0z"/>
  </g>
 </g>
</svg>
