<svg width="40" height="40" viewBox="0 0 40 40" fill="none" xmlns="http://www.w3.org/2000/svg">
<path d="M14.08 39.0324C16 39.6109 17.94 39.9501 20 39.9501C25.3043 39.9501 30.3914 37.8482 34.1421 34.1068C37.8929 30.3655 40 25.2911 40 20C40 17.3802 39.4827 14.786 38.4776 12.3655C37.4725 9.94507 35.9993 7.7458 34.1421 5.89327C32.285 4.04074 30.0802 2.57123 27.6537 1.56865C25.2272 0.566071 22.6264 0.0500488 20 0.0500488C17.3736 0.0500488 14.7728 0.566071 12.3463 1.56865C9.91982 2.57123 7.71504 4.04074 5.85786 5.89327C2.10714 9.63462 0 14.709 0 20C0 28.4788 5.34 35.7606 12.88 38.6334C12.7 37.0773 12.52 34.5037 12.88 32.7281L15.18 22.8728C15.18 22.8728 14.6 21.7157 14.6 19.8804C14.6 17.1272 16.32 15.0724 18.28 15.0724C20 15.0724 20.8 16.3293 20.8 17.9452C20.8 19.6609 19.66 22.1147 19.08 24.4688C18.74 26.424 20.12 28.1397 22.12 28.1397C25.68 28.1397 28.44 24.3491 28.44 19.0026C28.44 14.2145 25 10.9427 20.06 10.9427C14.42 10.9427 11.1 15.1323 11.1 19.5412C11.1 21.2569 11.66 22.9925 12.58 24.1297C12.76 24.2494 12.76 24.409 12.7 24.7083L12.12 26.8828C12.12 27.222 11.9 27.3417 11.56 27.1023C9 25.9851 7.52 22.3542 7.52 19.4215C7.52 13.1173 12 7.39165 20.64 7.39165C27.52 7.39165 32.88 12.3193 32.88 18.8629C32.88 25.7257 28.62 31.2319 22.52 31.2319C20.58 31.2319 18.68 30.1945 18 28.9776L16.66 33.7057C16.2 35.4214 14.94 37.7157 14.08 39.0922V39.0324Z" fill="#DFE3C9"/>
</svg>
